<?xml version="1.0" standalone="no"?>
<!DOCTYPE svg PUBLIC "-//W3C//DTD SVG 20010904//EN"
 "http://www.w3.org/TR/2001/REC-SVG-20010904/DTD/svg10.dtd">
<svg version="1.0" xmlns="http://www.w3.org/2000/svg"
 width="1012.000000pt" height="1012.000000pt" viewBox="0 0 1012.000000 1012.000000"
 preserveAspectRatio="xMidYMid meet">
<metadata>
Created by potrace 1.14, written by Peter Selinger 2001-2017
</metadata>
<g transform="translate(0.000000,1012.000000) scale(0.100000,-0.100000)"
fill="#000000" stroke="none">
<path d="M4255 8903 c-44 -6 -81 -12 -82 -12 -2 -1 -3 -666 -3 -1478 l0 -1478
438 -1152 c430 -1134 437 -1152 451 -1120 7 17 204 533 437 1146 l424 1113 0
1488 0 1488 -75 11 c-42 6 -80 11 -85 11 -6 0 -11 -440 -12 -1183 l-3 -1183
-189 223 c-104 123 -191 221 -194 219 -2 -3 -73 -163 -158 -357 -84 -193 -154
-353 -156 -354 -2 -2 -73 158 -158 356 -85 197 -158 357 -161 356 -4 -1 -91
-103 -195 -225 l-189 -224 -5 1184 -5 1183 -80 -12z m616 -2641 l174 -402 22
47 c12 27 93 211 180 411 87 199 161 362 164 362 4 0 82 -88 173 -196 l166
-196 0 -172 -1 -171 -179 -470 -178 -470 -344 -3 -344 -2 -182 480 -182 481 0
162 1 162 172 202 c103 123 174 198 178 190 3 -6 84 -193 180 -415z"/>
<path d="M7722 6607 l-942 -942 -500 -1114 c-276 -612 -500 -1114 -498 -1116
2 -1 506 224 1122 500 l1119 503 861 861 861 861 -33 63 c-17 34 -37 69 -42
77 -8 12 -144 -120 -670 -645 -588 -588 -660 -657 -660 -630 1 17 11 149 24
295 13 146 22 266 21 268 -1 1 -163 -61 -359 -138 -196 -78 -361 -140 -365
-138 -4 2 57 165 135 363 78 198 141 361 140 362 -2 2 -135 -8 -296 -22 -162
-14 -297 -25 -300 -25 -3 0 321 326 720 725 l724 724 -34 37 c-19 19 -47 44
-61 54 l-25 19 -942 -942z m-42 -764 c0 -3 -73 -190 -161 -415 -89 -225 -160
-411 -157 -413 2 -2 180 65 396 150 216 85 403 158 416 161 23 5 24 4 19 -38
-2 -24 -12 -141 -22 -261 l-18 -219 -119 -118 -119 -118 -463 -207 -464 -208
-239 239 c-131 131 -239 244 -239 250 0 6 93 217 206 470 l206 459 117 117
116 116 235 20 c284 23 290 24 290 15z"/>
<path d="M1381 7485 l-62 -59 718 -718 c395 -395 713 -718 708 -718 -6 0 -138
11 -295 25 -156 13 -286 22 -288 20 -2 -2 59 -165 137 -362 77 -198 141 -362
141 -367 0 -4 -5 -4 -11 0 -22 13 -713 283 -717 279 -2 -2 7 -133 21 -292 13
-158 22 -290 20 -293 -2 -2 -296 288 -653 645 -357 357 -651 647 -654 645 -2
-3 -21 -36 -41 -74 l-38 -68 858 -858 859 -859 1110 -499 c611 -275 1113 -498
1115 -496 2 2 -221 504 -495 1116 l-499 1112 -936 940 -936 940 -62 -59z
m1341 -1662 l217 -17 116 -116 116 -117 209 -464 208 -464 -242 -243 -243
-244 -464 208 -464 207 -117 116 -117 116 -22 258 c-12 142 -19 260 -16 264 3
3 191 -67 418 -156 226 -89 413 -161 414 -159 2 2 -71 190 -161 418 -90 228
-164 416 -164 419 0 2 21 1 48 -2 26 -3 145 -14 264 -24z"/>
<path d="M6160 6362 l0 -488 -555 -1458 c-305 -803 -556 -1460 -557 -1462 -2
-1 -254 658 -561 1465 l-557 1467 0 477 c0 262 -3 477 -7 477 -4 0 -79 -36
-167 -79 -232 -115 -460 -268 -653 -440 l-51 -46 228 -230 228 -230 641 -1429
c353 -786 640 -1430 639 -1432 -2 -1 -598 265 -1325 592 -728 327 -1326 594
-1330 594 -11 0 7 -281 28 -425 71 -494 259 -943 567 -1355 115 -153 401 -439
552 -552 422 -315 845 -493 1370 -575 165 -26 645 -26 810 0 352 55 595 131
905 282 450 220 857 580 1142 1010 291 440 457 949 480 1474 6 149 6 154 -13
149 -10 -3 -615 -274 -1343 -602 -729 -327 -1326 -595 -1327 -593 -1 1 287
645 640 1430 l642 1428 232 232 c128 128 232 236 232 240 0 20 -224 200 -385
308 -112 75 -461 259 -491 259 -12 0 -14 -84 -14 -488z"/>
</g>
</svg>
